<svg xmlns="http://www.w3.org/2000/svg" width="148.078" height="82.078" viewBox="0 0 39.179 21.717">
  <path fill="gray" d="M9.322 15.075q0 .375-.022.614-.022.225-.077.33-.055.09-.143.075-.076-.015-.197-.105L.24 10.022q-.11-.075-.175-.36Q0 9.378 0 8.838q0-.24.011-.45.022-.21.055-.345.044-.135.088-.225.054-.105.12-.135l8.609-5.937q.252-.165.34.015.099.18.099.885 0 .435-.022.69-.011.254-.055.42-.033.15-.11.24-.066.074-.197.164L1.875 8.883l7.019 4.647q.142.105.22.195.087.075.13.24.045.15.056.42.022.255.022.69zm8.038 6.042q-.044.195-.12.3-.066.12-.176.18-.11.06-.274.09-.154.03-.384.03-.274 0-.46-.06-.176-.045-.275-.15-.099-.09-.12-.24-.022-.135.043-.33L22.23-3.936q.044-.195.11-.3.077-.12.175-.18.11-.075.274-.09.165-.03.395-.03.274 0 .45.06.175.045.274.135.099.09.12.24.023.15-.032.345zM34.643 8.898q0 .255-.022.465-.022.194-.054.344-.033.15-.088.24-.055.075-.12.12l-8.61 5.937q-.12.075-.208.09-.088 0-.142-.105-.044-.105-.066-.315-.022-.224-.022-.57 0-.42.01-.674.012-.255.045-.405.043-.165.12-.255t.198-.165l7.073-4.752-7.03-4.633q-.142-.09-.23-.165-.077-.09-.12-.255-.044-.165-.055-.42-.011-.27-.011-.704 0-.39.022-.6.022-.225.066-.315.054-.105.142-.09t.208.105l8.642 5.952q.11.075.176.375.076.285.076.795z" aria-label="&lt; /&gt;" font-family="Calibri" font-size="96" font-weight="400" letter-spacing="0" style="line-height:1.25;-inkscape-font-specification:Calibri" word-spacing="0"/>
</svg>
